<mxfile host="app.diagrams.net" agent="Mozilla/5.0 (Windows NT 10.0; Win64; x64) AppleWebKit/537.36 (KHTML, like Gecko) Chrome/141.0.0.0 Safari/537.36 Edg/141.0.0.0" version="28.2.7">
  <diagram name="Página-1" id="dhI1oieEXdDKpQaljFIh">
    <mxGraphModel dx="1418" dy="786" grid="1" gridSize="10" guides="1" tooltips="1" connect="1" arrows="1" fold="1" page="1" pageScale="1" pageWidth="827" pageHeight="1169" math="0" shadow="0">
      <root>
        <mxCell id="0" />
        <mxCell id="1" parent="0" />
        <mxCell id="sgynon90AqSbaNBU06Kk-1" value="haces click&lt;br&gt;&lt;br&gt;hay 5 objetos" style="rounded=0;whiteSpace=wrap;html=1;" vertex="1" parent="1">
          <mxGeometry x="360" y="20" width="120" height="60" as="geometry" />
        </mxCell>
        <mxCell id="sgynon90AqSbaNBU06Kk-2" value="" style="endArrow=classic;html=1;rounded=0;exitX=0.5;exitY=1;exitDx=0;exitDy=0;" edge="1" parent="1" source="sgynon90AqSbaNBU06Kk-1">
          <mxGeometry width="50" height="50" relative="1" as="geometry">
            <mxPoint x="390" y="330" as="sourcePoint" />
            <mxPoint x="420" y="140" as="targetPoint" />
          </mxGeometry>
        </mxCell>
        <mxCell id="sgynon90AqSbaNBU06Kk-3" value="spawneas en la entrada del laberinto&amp;nbsp;" style="rounded=1;whiteSpace=wrap;html=1;" vertex="1" parent="1">
          <mxGeometry x="360" y="140" width="120" height="60" as="geometry" />
        </mxCell>
        <mxCell id="sgynon90AqSbaNBU06Kk-4" value="¿entra al laberinto?" style="rhombus;whiteSpace=wrap;html=1;" vertex="1" parent="1">
          <mxGeometry x="380" y="240" width="80" height="80" as="geometry" />
        </mxCell>
        <mxCell id="sgynon90AqSbaNBU06Kk-5" value="" style="endArrow=classic;html=1;rounded=0;exitX=0.5;exitY=1;exitDx=0;exitDy=0;entryX=0.5;entryY=0;entryDx=0;entryDy=0;" edge="1" parent="1" source="sgynon90AqSbaNBU06Kk-3" target="sgynon90AqSbaNBU06Kk-4">
          <mxGeometry width="50" height="50" relative="1" as="geometry">
            <mxPoint x="390" y="330" as="sourcePoint" />
            <mxPoint x="440" y="280" as="targetPoint" />
          </mxGeometry>
        </mxCell>
        <mxCell id="sgynon90AqSbaNBU06Kk-6" value="" style="endArrow=classic;html=1;rounded=0;exitX=1;exitY=0.5;exitDx=0;exitDy=0;" edge="1" parent="1" source="sgynon90AqSbaNBU06Kk-4">
          <mxGeometry width="50" height="50" relative="1" as="geometry">
            <mxPoint x="470" y="280" as="sourcePoint" />
            <mxPoint x="530" y="280" as="targetPoint" />
            <Array as="points">
              <mxPoint x="500" y="280" />
            </Array>
          </mxGeometry>
        </mxCell>
        <mxCell id="sgynon90AqSbaNBU06Kk-7" value="no" style="edgeLabel;html=1;align=center;verticalAlign=middle;resizable=0;points=[];" vertex="1" connectable="0" parent="sgynon90AqSbaNBU06Kk-6">
          <mxGeometry x="-0.1714" y="-1" relative="1" as="geometry">
            <mxPoint as="offset" />
          </mxGeometry>
        </mxCell>
        <mxCell id="sgynon90AqSbaNBU06Kk-8" value="se podrá mover unos metros pero tendrá paredes invisibles que le obligaran a entrar" style="whiteSpace=wrap;html=1;aspect=fixed;" vertex="1" parent="1">
          <mxGeometry x="530" y="220" width="110" height="110" as="geometry" />
        </mxCell>
        <mxCell id="sgynon90AqSbaNBU06Kk-9" value="" style="endArrow=classic;html=1;rounded=0;exitX=0.5;exitY=1;exitDx=0;exitDy=0;" edge="1" parent="1" source="sgynon90AqSbaNBU06Kk-4">
          <mxGeometry width="50" height="50" relative="1" as="geometry">
            <mxPoint x="380" y="400" as="sourcePoint" />
            <mxPoint x="420" y="360" as="targetPoint" />
          </mxGeometry>
        </mxCell>
        <mxCell id="sgynon90AqSbaNBU06Kk-11" value="si" style="edgeLabel;html=1;align=center;verticalAlign=middle;resizable=0;points=[];" vertex="1" connectable="0" parent="sgynon90AqSbaNBU06Kk-9">
          <mxGeometry x="-0.05" y="2" relative="1" as="geometry">
            <mxPoint as="offset" />
          </mxGeometry>
        </mxCell>
        <mxCell id="sgynon90AqSbaNBU06Kk-10" value="una vez que entre se cerrara la la entrada con una animación" style="rounded=0;whiteSpace=wrap;html=1;" vertex="1" parent="1">
          <mxGeometry x="360" y="360" width="120" height="60" as="geometry" />
        </mxCell>
        <mxCell id="sgynon90AqSbaNBU06Kk-12" value="" style="endArrow=classic;html=1;rounded=0;exitX=0.5;exitY=1;exitDx=0;exitDy=0;" edge="1" parent="1" source="sgynon90AqSbaNBU06Kk-10">
          <mxGeometry width="50" height="50" relative="1" as="geometry">
            <mxPoint x="370" y="560" as="sourcePoint" />
            <mxPoint x="420" y="470" as="targetPoint" />
          </mxGeometry>
        </mxCell>
        <mxCell id="sgynon90AqSbaNBU06Kk-75" style="edgeStyle=orthogonalEdgeStyle;rounded=0;orthogonalLoop=1;jettySize=auto;html=1;exitX=1;exitY=0.5;exitDx=0;exitDy=0;" edge="1" parent="1" source="sgynon90AqSbaNBU06Kk-13">
          <mxGeometry relative="1" as="geometry">
            <mxPoint x="420" y="450" as="targetPoint" />
            <Array as="points">
              <mxPoint x="560" y="510" />
              <mxPoint x="560" y="450" />
            </Array>
          </mxGeometry>
        </mxCell>
        <mxCell id="sgynon90AqSbaNBU06Kk-76" value="no" style="edgeLabel;html=1;align=center;verticalAlign=middle;resizable=0;points=[];" vertex="1" connectable="0" parent="sgynon90AqSbaNBU06Kk-75">
          <mxGeometry x="-0.1793" y="1" relative="1" as="geometry">
            <mxPoint as="offset" />
          </mxGeometry>
        </mxCell>
        <mxCell id="sgynon90AqSbaNBU06Kk-13" value="¿avanza en el laberinto?&amp;nbsp;" style="rhombus;whiteSpace=wrap;html=1;" vertex="1" parent="1">
          <mxGeometry x="370" y="470" width="100" height="80" as="geometry" />
        </mxCell>
        <mxCell id="sgynon90AqSbaNBU06Kk-16" value="" style="endArrow=classic;html=1;rounded=0;exitX=0.5;exitY=1;exitDx=0;exitDy=0;entryX=0.5;entryY=0;entryDx=0;entryDy=0;" edge="1" parent="1" source="sgynon90AqSbaNBU06Kk-13" target="sgynon90AqSbaNBU06Kk-20">
          <mxGeometry width="50" height="50" relative="1" as="geometry">
            <mxPoint x="414" y="600" as="sourcePoint" />
            <mxPoint x="420" y="600" as="targetPoint" />
          </mxGeometry>
        </mxCell>
        <mxCell id="sgynon90AqSbaNBU06Kk-17" value="si" style="edgeLabel;html=1;align=center;verticalAlign=middle;resizable=0;points=[];" vertex="1" connectable="0" parent="sgynon90AqSbaNBU06Kk-16">
          <mxGeometry x="-0.44" y="3" relative="1" as="geometry">
            <mxPoint as="offset" />
          </mxGeometry>
        </mxCell>
        <mxCell id="sgynon90AqSbaNBU06Kk-77" style="edgeStyle=orthogonalEdgeStyle;rounded=0;orthogonalLoop=1;jettySize=auto;html=1;exitX=1;exitY=0.5;exitDx=0;exitDy=0;" edge="1" parent="1" source="sgynon90AqSbaNBU06Kk-20">
          <mxGeometry relative="1" as="geometry">
            <mxPoint x="420" y="430" as="targetPoint" />
            <mxPoint x="454" y="550" as="sourcePoint" />
            <Array as="points">
              <mxPoint x="730" y="760" />
              <mxPoint x="730" y="430" />
            </Array>
          </mxGeometry>
        </mxCell>
        <mxCell id="sgynon90AqSbaNBU06Kk-78" value="no" style="edgeLabel;html=1;align=center;verticalAlign=middle;resizable=0;points=[];" vertex="1" connectable="0" parent="sgynon90AqSbaNBU06Kk-77">
          <mxGeometry x="-0.1347" y="-1" relative="1" as="geometry">
            <mxPoint as="offset" />
          </mxGeometry>
        </mxCell>
        <mxCell id="sgynon90AqSbaNBU06Kk-20" value="¿ha cogido algún objeto?" style="rhombus;whiteSpace=wrap;html=1;" vertex="1" parent="1">
          <mxGeometry x="374" y="720" width="80" height="80" as="geometry" />
        </mxCell>
        <mxCell id="sgynon90AqSbaNBU06Kk-24" value="" style="endArrow=classic;html=1;rounded=0;exitX=0.5;exitY=1;exitDx=0;exitDy=0;" edge="1" parent="1" source="sgynon90AqSbaNBU06Kk-20">
          <mxGeometry width="50" height="50" relative="1" as="geometry">
            <mxPoint x="414" y="850" as="sourcePoint" />
            <mxPoint x="414" y="840" as="targetPoint" />
          </mxGeometry>
        </mxCell>
        <mxCell id="sgynon90AqSbaNBU06Kk-25" value="si" style="edgeLabel;html=1;align=center;verticalAlign=middle;resizable=0;points=[];" vertex="1" connectable="0" parent="sgynon90AqSbaNBU06Kk-24">
          <mxGeometry x="-0.1" y="2" relative="1" as="geometry">
            <mxPoint as="offset" />
          </mxGeometry>
        </mxCell>
        <mxCell id="sgynon90AqSbaNBU06Kk-81" style="edgeStyle=orthogonalEdgeStyle;rounded=0;orthogonalLoop=1;jettySize=auto;html=1;exitX=0.5;exitY=1;exitDx=0;exitDy=0;entryX=0.5;entryY=0;entryDx=0;entryDy=0;" edge="1" parent="1" source="sgynon90AqSbaNBU06Kk-26" target="sgynon90AqSbaNBU06Kk-29">
          <mxGeometry relative="1" as="geometry" />
        </mxCell>
        <mxCell id="sgynon90AqSbaNBU06Kk-26" value="saltar con un trozo de la historia del laberinto&lt;br&gt;&lt;br&gt;&amp;nbsp;numero de objetos +1" style="rounded=1;whiteSpace=wrap;html=1;" vertex="1" parent="1">
          <mxGeometry x="270" y="840" width="280" height="60" as="geometry" />
        </mxCell>
        <mxCell id="sgynon90AqSbaNBU06Kk-79" style="edgeStyle=orthogonalEdgeStyle;rounded=0;orthogonalLoop=1;jettySize=auto;html=1;exitX=1;exitY=0.5;exitDx=0;exitDy=0;" edge="1" parent="1" source="sgynon90AqSbaNBU06Kk-29">
          <mxGeometry relative="1" as="geometry">
            <mxPoint x="420" y="430" as="targetPoint" />
            <Array as="points">
              <mxPoint x="1010" y="990" />
              <mxPoint x="1010" y="430" />
            </Array>
          </mxGeometry>
        </mxCell>
        <mxCell id="sgynon90AqSbaNBU06Kk-80" value="no" style="edgeLabel;html=1;align=center;verticalAlign=middle;resizable=0;points=[];" vertex="1" connectable="0" parent="sgynon90AqSbaNBU06Kk-79">
          <mxGeometry x="-0.125" y="-4" relative="1" as="geometry">
            <mxPoint as="offset" />
          </mxGeometry>
        </mxCell>
        <mxCell id="sgynon90AqSbaNBU06Kk-29" value="¿tiene todos los objetos?" style="rhombus;whiteSpace=wrap;html=1;" vertex="1" parent="1">
          <mxGeometry x="360" y="950" width="80" height="80" as="geometry" />
        </mxCell>
        <mxCell id="sgynon90AqSbaNBU06Kk-32" value="" style="endArrow=classic;html=1;rounded=0;exitX=0.5;exitY=1;exitDx=0;exitDy=0;" edge="1" parent="1" source="sgynon90AqSbaNBU06Kk-29">
          <mxGeometry width="50" height="50" relative="1" as="geometry">
            <mxPoint x="410" y="1090" as="sourcePoint" />
            <mxPoint x="400" y="1070" as="targetPoint" />
          </mxGeometry>
        </mxCell>
        <mxCell id="sgynon90AqSbaNBU06Kk-33" value="si" style="edgeLabel;html=1;align=center;verticalAlign=middle;resizable=0;points=[];" vertex="1" connectable="0" parent="sgynon90AqSbaNBU06Kk-32">
          <mxGeometry x="-0.3" y="2" relative="1" as="geometry">
            <mxPoint as="offset" />
          </mxGeometry>
        </mxCell>
        <mxCell id="sgynon90AqSbaNBU06Kk-34" value="salta una card con el mensaje de ya tengo todos los objetos perdidos ahora debería salir de aqui" style="rounded=0;whiteSpace=wrap;html=1;" vertex="1" parent="1">
          <mxGeometry x="320" y="1070" width="160" height="60" as="geometry" />
        </mxCell>
        <mxCell id="sgynon90AqSbaNBU06Kk-36" value="" style="endArrow=classic;html=1;rounded=0;exitX=0.5;exitY=1;exitDx=0;exitDy=0;" edge="1" parent="1" source="sgynon90AqSbaNBU06Kk-34">
          <mxGeometry width="50" height="50" relative="1" as="geometry">
            <mxPoint x="370" y="1219" as="sourcePoint" />
            <mxPoint x="400" y="1170" as="targetPoint" />
          </mxGeometry>
        </mxCell>
        <mxCell id="sgynon90AqSbaNBU06Kk-82" style="edgeStyle=orthogonalEdgeStyle;rounded=0;orthogonalLoop=1;jettySize=auto;html=1;exitX=1;exitY=0.5;exitDx=0;exitDy=0;" edge="1" parent="1" source="sgynon90AqSbaNBU06Kk-37">
          <mxGeometry relative="1" as="geometry">
            <mxPoint x="400" y="1150" as="targetPoint" />
          </mxGeometry>
        </mxCell>
        <mxCell id="sgynon90AqSbaNBU06Kk-83" value="no" style="edgeLabel;html=1;align=center;verticalAlign=middle;resizable=0;points=[];" vertex="1" connectable="0" parent="sgynon90AqSbaNBU06Kk-82">
          <mxGeometry x="-0.298" y="4" relative="1" as="geometry">
            <mxPoint as="offset" />
          </mxGeometry>
        </mxCell>
        <mxCell id="sgynon90AqSbaNBU06Kk-37" value="¿ha salido del laberinto?" style="rhombus;whiteSpace=wrap;html=1;" vertex="1" parent="1">
          <mxGeometry x="350" y="1169" width="100" height="80" as="geometry" />
        </mxCell>
        <mxCell id="sgynon90AqSbaNBU06Kk-40" value="" style="endArrow=classic;html=1;rounded=0;exitX=0.5;exitY=1;exitDx=0;exitDy=0;" edge="1" parent="1" source="sgynon90AqSbaNBU06Kk-37">
          <mxGeometry width="50" height="50" relative="1" as="geometry">
            <mxPoint x="390" y="1340" as="sourcePoint" />
            <mxPoint x="400" y="1300" as="targetPoint" />
          </mxGeometry>
        </mxCell>
        <mxCell id="sgynon90AqSbaNBU06Kk-41" value="si" style="edgeLabel;html=1;align=center;verticalAlign=middle;resizable=0;points=[];" vertex="1" connectable="0" parent="sgynon90AqSbaNBU06Kk-40">
          <mxGeometry x="-0.0588" y="2" relative="1" as="geometry">
            <mxPoint as="offset" />
          </mxGeometry>
        </mxCell>
        <mxCell id="sgynon90AqSbaNBU06Kk-42" value="salta una card de felicidades has logrado escapar del laberinto con los objetos del pueblo de asturias" style="rounded=0;whiteSpace=wrap;html=1;" vertex="1" parent="1">
          <mxGeometry x="290" y="1300" width="220" height="60" as="geometry" />
        </mxCell>
        <mxCell id="sgynon90AqSbaNBU06Kk-73" value="" style="shape=link;html=1;rounded=0;" edge="1" parent="1">
          <mxGeometry width="100" relative="1" as="geometry">
            <mxPoint y="1430" as="sourcePoint" />
            <mxPoint x="830" y="1430" as="targetPoint" />
          </mxGeometry>
        </mxCell>
      </root>
    </mxGraphModel>
  </diagram>
</mxfile>
